<?xml version="1.0" encoding="UTF-8" standalone="no"?>
<!-- Uploaded to: SVG Repo, www.svgrepo.com, Generator: SVG Repo Mixer Tools -->

<svg
   fill="#000000"
   width="800px"
   height="800px"
   viewBox="0 0 32 32"
   version="1.1"
   id="svg4"
   sodipodi:docname="ts.svg"
   inkscape:version="1.1.2 (0a00cf5339, 2022-02-04)"
   xmlns:inkscape="http://www.inkscape.org/namespaces/inkscape"
   xmlns:sodipodi="http://sodipodi.sourceforge.net/DTD/sodipodi-0.dtd"
   xmlns="http://www.w3.org/2000/svg"
   xmlns:svg="http://www.w3.org/2000/svg">
  <defs
     id="defs8" />
  <sodipodi:namedview
     id="namedview6"
     pagecolor="#ffffff"
     bordercolor="#666666"
     borderopacity="1.0"
     inkscape:pageshadow="2"
     inkscape:pageopacity="0.0"
     inkscape:pagecheckerboard="0"
     showgrid="false"
     inkscape:zoom="0.62641461"
     inkscape:cx="348.01232"
     inkscape:cy="565.12092"
     inkscape:window-width="1920"
     inkscape:window-height="939"
     inkscape:window-x="0"
     inkscape:window-y="32"
     inkscape:window-maximized="1"
     inkscape:current-layer="svg4" />
  <path
     d="M 1.4,16.092611 V 30.785223 H 30.785223 V 1.4 H 1.4 Z m 23.67898,-1.171735 c 0.746568,0.186412 1.314989,0.521587 1.841168,1.061541 0.26814,0.286506 0.669432,0.812685 0.703409,0.942164 0.0092,0.03857 -1.267238,0.894412 -2.042273,1.37284 -0.02847,0.01928 -0.143253,-0.100093 -0.268141,-0.287424 -0.377416,-0.550054 -0.775035,-0.788809 -1.382023,-0.831969 -0.889822,-0.05785 -1.463752,0.406802 -1.45916,1.186429 -0.0046,0.191003 0.03857,0.382926 0.123969,0.550054 0.196513,0.406802 0.564747,0.650148 1.702506,1.143269 2.104717,0.903596 3.003721,1.501401 3.562958,2.348063 0.626273,0.946755 0.764934,2.458257 0.344358,3.586834 -0.468327,1.219486 -1.626288,2.051456 -3.252577,2.324187 -0.502303,0.09091 -1.697914,0.07622 -2.238786,-0.02388 -1.180919,-0.210288 -2.300312,-0.79432 -2.989028,-1.559254 -0.272732,-0.296607 -0.798911,-1.076233 -0.764934,-1.128576 0.01469,-0.01928 0.13407,-0.0955 0.26814,-0.172638 0.13407,-0.07714 0.626272,-0.363642 1.090926,-0.631782 l 0.846662,-0.492203 0.177229,0.262631 c 0.248857,0.377416 0.78881,0.894412 1.114802,1.066132 0.937573,0.497712 2.224094,0.426086 2.860468,-0.143253 0.258039,-0.214879 0.40221,-0.545463 0.382926,-0.87972 0,-0.339767 -0.04316,-0.492202 -0.220389,-0.746568 -0.229572,-0.325074 -0.693307,-0.602397 -2.018397,-1.176327 -1.516094,-0.655658 -2.171752,-1.05695 -2.764048,-1.702507 -0.372825,-0.426086 -0.650148,-0.927471 -0.808093,-1.468343 -0.110195,-0.415984 -0.138662,-1.45916 -0.05234,-1.875144 0.3113,-1.468343 1.420592,-2.486725 3.012904,-2.787923 0.516996,-0.100094 1.72179,-0.06244 2.228685,0.06244 z m -6.896345,1.229588 0.0092,1.200202 H 14.365311 V 28.22228 H 11.658198 V 17.350666 H 7.8372004 v -1.176327 c 0,-0.655658 0.014693,-1.200203 0.033058,-1.214895 0.014693,-0.01928 2.3388796,-0.02847 5.1607806,-0.02388 l 5.136904,0.01469 z"
     id="path2"
     style="stroke-width:0.918288" />
</svg>
